<svg width="32" height="32" viewBox="0 0 32 32" fill="none" xmlns="http://www.w3.org/2000/svg">
<rect width="32" height="32" rx="4" fill="#5B87F8"/>
<path d="M15 17V20C15 20.2833 15.096 20.521 15.288 20.713C15.48 20.905 15.7173 21.0007 16 21C16.2833 21 16.521 20.904 16.713 20.712C16.905 20.52 17.0007 20.2827 17 20V17H20C20.2833 17 20.521 16.904 20.713 16.712C20.905 16.52 21.0007 16.2827 21 16C21 15.7167 20.904 15.479 20.712 15.287C20.52 15.095 20.2827 14.9993 20 15H17V12C17 11.7167 16.904 11.479 16.712 11.287C16.52 11.095 16.2827 10.9993 16 11C15.7167 11 15.479 11.096 15.287 11.288C15.095 11.48 14.9993 11.7173 15 12V15H12C11.7167 15 11.479 15.096 11.287 15.288C11.095 15.48 10.9993 15.7173 11 16C11 16.2833 11.096 16.521 11.288 16.713C11.48 16.905 11.7173 17.0007 12 17H15ZM16 26C14.6167 26 13.3167 25.7373 12.1 25.212C10.8833 24.6867 9.825 23.9743 8.925 23.075C8.025 22.175 7.31267 21.1167 6.788 19.9C6.26333 18.6833 6.00067 17.3833 6 16C6 14.6167 6.26267 13.3167 6.788 12.1C7.31333 10.8833 8.02567 9.825 8.925 8.925C9.825 8.025 10.8833 7.31267 12.1 6.788C13.3167 6.26333 14.6167 6.00067 16 6C17.3833 6 18.6833 6.26267 19.9 6.788C21.1167 7.31333 22.175 8.02567 23.075 8.925C23.975 9.825 24.6877 10.8833 25.213 12.1C25.7383 13.3167 26.0007 14.6167 26 16C26 17.3833 25.7373 18.6833 25.212 19.9C24.6867 21.1167 23.9743 22.175 23.075 23.075C22.175 23.975 21.1167 24.6877 19.9 25.213C18.6833 25.7383 17.3833 26.0007 16 26ZM16 24C18.2333 24 20.125 23.225 21.675 21.675C23.225 20.125 24 18.2333 24 16C24 13.7667 23.225 11.875 21.675 10.325C20.125 8.775 18.2333 8 16 8C13.7667 8 11.875 8.775 10.325 10.325C8.775 11.875 8 13.7667 8 16C8 18.2333 8.775 20.125 10.325 21.675C11.875 23.225 13.7667 24 16 24Z" fill="white"/>
</svg>
