<svg width="32" height="32" viewBox="0 0 32 32" fill="none" xmlns="http://www.w3.org/2000/svg">
<path d="M12.4134 8.94661C12.2898 9.06997 12.1917 9.21648 12.1248 9.37778C12.0579 9.53908 12.0234 9.71199 12.0234 9.88661C12.0234 10.0612 12.0579 10.2341 12.1248 10.3954C12.1917 10.5567 12.2898 10.7033 12.4134 10.8266L17.5867 15.9999L12.4134 21.1733C12.1641 21.4226 12.024 21.7607 12.024 22.1133C12.024 22.4658 12.1641 22.804 12.4134 23.0533C12.6627 23.3026 13.0008 23.4426 13.3534 23.4426C13.7059 23.4426 14.0441 23.3026 14.2934 23.0533L20.4134 16.9333C20.537 16.8099 20.635 16.6634 20.7019 16.5021C20.7688 16.3408 20.8033 16.1679 20.8033 15.9933C20.8033 15.8187 20.7688 15.6457 20.7019 15.4844C20.635 15.3232 20.537 15.1766 20.4134 15.0533L14.2934 8.93328C13.7867 8.42661 12.9334 8.42661 12.4134 8.94661Z" fill="black"/>
</svg>
