<svg width="32" height="32" viewBox="0 0 32 32" fill="none" xmlns="http://www.w3.org/2000/svg">
<path d="M23.0534 12.4134C22.93 12.2898 22.7835 12.1917 22.6222 12.1248C22.4609 12.0579 22.288 12.0234 22.1134 12.0234C21.9388 12.0234 21.7659 12.0579 21.6046 12.1248C21.4433 12.1917 21.2967 12.2898 21.1734 12.4134L16.0001 17.5867L10.8267 12.4134C10.5774 12.1641 10.2393 12.024 9.88672 12.024C9.53415 12.024 9.19602 12.1641 8.94672 12.4134C8.69741 12.6627 8.55736 13.0008 8.55736 13.3534C8.55736 13.7059 8.69741 14.0441 8.94672 14.2934L15.0667 20.4134C15.1901 20.537 15.3366 20.635 15.4979 20.7019C15.6592 20.7688 15.8321 20.8033 16.0067 20.8033C16.1813 20.8033 16.3543 20.7688 16.5156 20.7019C16.6768 20.635 16.8234 20.537 16.9467 20.4134L23.0667 14.2934C23.5734 13.7867 23.5734 12.9334 23.0534 12.4134Z" fill="black"/>
</svg>
