<svg width="24" height="24" viewBox="0 0 24 24" fill="none" xmlns="http://www.w3.org/2000/svg">
<path d="M10 20.7769C9.12963 20.5795 8.2937 20.2529 7.52002 19.8079M14 3.2229C15.9882 3.67697 17.7633 4.79259 19.0347 6.38711C20.3061 7.98162 20.9985 9.96055 20.9985 11.9999C20.9985 14.0392 20.3061 16.0182 19.0347 17.6127C17.7633 19.2072 15.9882 20.3228 14 20.7769M4.57902 17.0929C4.03353 16.3004 3.61922 15.4252 3.35202 14.5009M3.12402 10.4999C3.28402 9.5499 3.59202 8.6499 4.02402 7.8249L4.19302 7.5199M6.90702 4.5789C7.84268 3.9348 8.89234 3.47462 10 3.2229" stroke="black" stroke-width="2" stroke-linecap="round" stroke-linejoin="round"/>
<path d="M9 12L11 14L15 10" stroke="black" stroke-width="2" stroke-linecap="round" stroke-linejoin="round"/>
</svg>
