<svg width="42" height="42" viewBox="0 0 42 42" fill="none" xmlns="http://www.w3.org/2000/svg">
<path fill-rule="evenodd" clip-rule="evenodd" d="M26.2472 1.38413C41.47 5.46997 44.1766 12.821 40.5828 26.2561C36.989 39.6911 30.9757 44.7017 15.7528 40.6159C0.529964 36.53 -2.17662 29.179 1.41721 15.7439C5.01104 2.30892 11.0243 -2.70171 26.2472 1.38413Z" fill="#5B87F8"/>
<path fill-rule="evenodd" clip-rule="evenodd" d="M17.0232 26.5548L30.7843 12.7937C31.5003 12.0777 32.6611 12.0777 33.3771 12.7937C34.093 13.5096 34.093 14.6704 33.3771 15.3864L18.3195 30.4439C17.6036 31.1599 16.4428 31.1599 15.7268 30.4439L9.66603 24.3831C8.95007 23.6672 8.95007 22.5064 9.66603 21.7904C10.382 21.0744 11.5428 21.0744 12.2588 21.7904L17.0232 26.5548Z" fill="white"/>
</svg>
