<svg width="130" height="58" viewBox="0 0 130 58" fill="none" xmlns="http://www.w3.org/2000/svg">
<path fill-rule="evenodd" clip-rule="evenodd" d="M36.1073 1.91141C57.0487 7.55378 60.7721 17.7053 55.8281 36.2583C50.8844 54.8115 42.612 61.7309 21.6705 56.0885C0.729056 50.4462 -2.99429 40.2948 1.94961 21.7417C6.89351 3.18852 15.1658 -3.73093 36.1073 1.91141Z" fill="#5B87F8"/>
<path fill-rule="evenodd" clip-rule="evenodd" d="M23.4183 36.6708L42.3488 17.6673C43.3338 16.6786 44.9308 16.6786 45.9157 17.6673C46.9006 18.656 46.9006 20.2591 45.9157 21.2478L25.2016 42.0414C24.2167 43.0301 22.6199 43.0301 21.6349 42.0414L13.2973 33.6718C12.3124 32.6831 12.3124 31.0801 13.2973 30.0914C14.2822 29.1027 15.8791 29.1027 16.864 30.0914L23.4183 36.6708Z" fill="white"/>
<path d="M80.3835 5.70926C80.889 5.70926 81.3223 5.89051 81.6835 6.25301C82.0446 6.61551 82.2251 7.05051 82.2251 7.55801C82.2251 8.06551 82.0446 8.50051 81.6835 8.86301C81.3223 9.21342 80.889 9.38863 80.3835 9.38863H75.5446V23.5443C75.5446 24.0518 75.364 24.4868 75.0029 24.8493C74.6418 25.1996 74.2085 25.3749 73.7029 25.3749C73.1973 25.3749 72.764 25.1996 72.4029 24.8493C72.0539 24.4868 71.8793 24.0518 71.8793 23.5443V9.38863H67.0223C66.5168 9.38863 66.0835 9.21342 65.7223 8.86301C65.3733 8.50051 65.1987 8.06551 65.1987 7.55801C65.1987 7.05051 65.3733 6.61551 65.7223 6.25301C66.0835 5.89051 66.5168 5.70926 67.0223 5.70926H80.3835ZM96.2899 23.5986C96.2899 24.1061 96.1093 24.5411 95.7482 24.9036C95.3871 25.254 94.9537 25.4293 94.4482 25.4293C94.027 25.4293 93.6478 25.2964 93.3107 25.0305C92.9857 24.7646 92.775 24.4324 92.6787 24.0336C92.0166 24.5652 91.2944 24.964 90.5121 25.2299C89.7416 25.4958 88.9533 25.6286 88.1468 25.6286H88.1287C87.1297 25.6286 86.1787 25.4352 85.276 25.0486C84.3853 24.662 83.5908 24.1183 82.8926 23.4174C82.2065 22.7165 81.677 21.907 81.3037 20.9886C80.9186 20.034 80.726 19.0552 80.726 18.0524C80.726 16.7232 81.045 15.4786 81.6829 14.3186C82.3329 13.1465 83.2236 12.2101 84.3551 11.5093C85.4867 10.8084 86.7444 10.458 88.1287 10.458H88.1468C88.9653 10.458 89.7597 10.597 90.5301 10.8749C91.3006 11.1407 92.0107 11.5274 92.6607 12.0349C92.7569 11.624 92.9676 11.2857 93.2926 11.0199C93.6297 10.742 94.0149 10.603 94.4482 10.603C94.9537 10.603 95.3871 10.7843 95.7482 11.1468C96.1093 11.5093 96.2899 11.9443 96.2899 12.4518V23.5986ZM88.1287 21.9493C88.8389 21.9493 89.477 21.768 90.0426 21.4055C90.6204 21.043 91.0718 20.5596 91.3968 19.9555C91.7218 19.3514 91.8843 18.7109 91.8843 18.0343C91.8843 17.2368 91.6676 16.5057 91.2343 15.8411C90.8853 15.3215 90.4339 14.9107 89.8801 14.6086C89.3385 14.2945 88.7547 14.1374 88.1287 14.1374C87.4426 14.1374 86.8107 14.3126 86.2329 14.663C85.6672 15.0134 85.2158 15.4907 84.8787 16.0949C84.5537 16.687 84.3912 17.3395 84.3912 18.0524C84.3912 18.7533 84.5597 19.4058 84.8968 20.0099C85.2339 20.602 85.6853 21.0733 86.251 21.4236C86.8287 21.774 87.4547 21.9493 88.1287 21.9493ZM105.144 15.8593C105.312 15.9318 105.589 16.0043 105.974 16.0768C106.973 16.3305 107.852 16.6084 108.61 16.9105C109.38 17.2126 110.079 17.702 110.705 18.3786C111.33 19.0433 111.644 19.9193 111.644 21.0068C111.644 21.8768 111.427 22.6683 110.994 23.3811C110.56 24.082 109.928 24.6439 109.098 25.0668C108.279 25.4777 107.316 25.683 106.209 25.683C105.258 25.683 104.367 25.5502 103.537 25.2843C102.706 25.0184 101.876 24.6196 101.045 24.088C100.732 23.9309 100.479 23.7074 100.287 23.4174C100.106 23.1152 100.016 22.783 100.016 22.4205C100.016 21.913 100.19 21.484 100.539 21.1336C100.901 20.7711 101.334 20.5899 101.839 20.5899C102.188 20.5899 102.519 20.6865 102.832 20.8799H102.851C103.416 21.2545 103.958 21.5384 104.476 21.7318C105.005 21.9252 105.583 22.0218 106.209 22.0218C106.702 22.0218 107.118 21.9493 107.455 21.8043C107.804 21.6471 107.978 21.3814 107.978 21.0068C107.978 20.9584 107.972 20.9221 107.96 20.898C107.96 20.8739 107.96 20.8558 107.96 20.8436C107.864 20.5899 107.539 20.3724 106.985 20.1911C106.444 19.9977 105.884 19.8408 105.306 19.7199C103.837 19.3815 102.658 18.8439 101.767 18.1068C100.888 17.3697 100.449 16.3728 100.449 15.1161V15.098V15.0799C100.449 14.089 100.678 13.2432 101.135 12.5424C101.593 11.8415 102.212 11.3099 102.995 10.9474C103.777 10.5849 104.65 10.4036 105.613 10.4036C106.492 10.4036 107.388 10.5607 108.303 10.8749C108.821 11.0561 109.393 11.3099 110.019 11.6361C110.319 11.7932 110.56 12.0168 110.741 12.3068C110.921 12.5968 111.012 12.917 111.012 13.2674C111.012 13.7749 110.831 14.2099 110.47 14.5724C110.121 14.9349 109.694 15.1161 109.188 15.1161H109.17L109.026 15.098C108.773 15.0738 108.556 15.0134 108.376 14.9168C108.279 14.8805 108.189 14.8443 108.105 14.808C108.032 14.7597 107.966 14.7234 107.906 14.6993C107.497 14.5059 107.13 14.3609 106.805 14.2643C106.48 14.1555 106.094 14.1011 105.649 14.1011C105.192 14.1011 104.849 14.1495 104.62 14.2461C104.391 14.3307 104.247 14.4455 104.187 14.5905C104.126 14.7234 104.096 14.8986 104.096 15.1161C104.096 15.1524 104.096 15.1765 104.096 15.1886C104.108 15.2007 104.114 15.2128 104.114 15.2249C104.162 15.3457 104.295 15.4665 104.512 15.5874C104.74 15.7082 104.951 15.7988 105.144 15.8593ZM127.042 22.2936C127.367 22.644 127.529 23.0609 127.529 23.5443C127.529 24.0518 127.349 24.4868 126.988 24.8493C126.639 25.1996 126.211 25.3749 125.706 25.3749C125.441 25.3749 125.188 25.3205 124.947 25.2118C124.719 25.103 124.52 24.958 124.352 24.7768L119.495 19.448L118.086 20.6986V23.5261V23.5443C118.086 24.0518 117.906 24.4868 117.545 24.8493C117.195 25.1996 116.768 25.3749 116.263 25.3749C115.757 25.3749 115.324 25.1996 114.963 24.8493C114.614 24.4868 114.439 24.0518 114.439 23.5443V23.5261V6.85113C114.439 6.34363 114.614 5.91467 114.963 5.56426C115.324 5.20176 115.757 5.02051 116.263 5.02051C116.768 5.02051 117.195 5.20176 117.545 5.56426C117.906 5.91467 118.086 6.34363 118.086 6.85113V15.7868L118.411 15.5149L118.429 15.4968H118.447V15.4786L123.666 10.8749C124.015 10.5607 124.418 10.4036 124.875 10.4036C125.381 10.4036 125.808 10.5849 126.157 10.9474C126.518 11.3099 126.699 11.7449 126.699 12.2524C126.699 12.7961 126.494 13.2553 126.085 13.6299L122.257 17.0193L127.06 22.2936H127.042ZM68.7557 35.8874C68.2501 35.8874 67.8168 35.7121 67.4557 35.3618C67.0946 34.9993 66.914 34.5643 66.914 34.0568C66.914 33.5493 67.0946 33.1143 67.4557 32.7518C67.8168 32.3893 68.2501 32.208 68.7557 32.208C69.2612 32.208 69.6886 32.3893 70.0376 32.7518C70.3987 33.1143 70.5793 33.5493 70.5793 34.0568C70.5793 34.5643 70.3987 34.9993 70.0376 35.3618C69.6886 35.7121 69.2612 35.8874 68.7557 35.8874ZM68.7557 37.7905C69.2612 37.7905 69.6886 37.9718 70.0376 38.3343C70.3987 38.6846 70.5793 39.1136 70.5793 39.6211V50.7318C70.5793 51.2393 70.3987 51.6743 70.0376 52.0368C69.6886 52.3871 69.2612 52.5624 68.7557 52.5624C68.2501 52.5624 67.8168 52.3871 67.4557 52.0368C67.0946 51.6743 66.914 51.2393 66.914 50.7318V39.6211C66.914 39.1136 67.0946 38.6846 67.4557 38.3343C67.8168 37.9718 68.2501 37.7905 68.7557 37.7905ZM84.7935 50.6411C84.7935 51.1002 84.6431 51.5052 84.3421 51.8555C84.0532 52.1939 83.6862 52.3933 83.2407 52.4536V52.4718H83.1685H83.1505C82.6931 52.5321 82.2959 52.5624 81.9588 52.5624C80.8515 52.5624 79.9005 52.3389 79.106 51.8918C78.3116 51.4326 77.7098 50.8043 77.3005 50.0068C76.8911 49.1971 76.6866 48.2789 76.6866 47.2518V40.9986H75.5671C75.0616 40.9986 74.6282 40.8174 74.2671 40.4549C73.9181 40.0924 73.7435 39.6574 73.7435 39.1499C73.7435 38.6424 73.9181 38.2134 74.2671 37.863C74.6282 37.5005 75.0616 37.3193 75.5671 37.3193H76.6866V33.8393C76.6866 33.3318 76.8612 32.9027 77.2102 32.5524C77.5713 32.1899 78.0046 32.0086 78.5102 32.0086C79.0157 32.0086 79.4431 32.1899 79.7921 32.5524C80.1532 32.9027 80.3338 33.3318 80.3338 33.8393V37.3193H82.8616C83.3671 37.3193 83.8005 37.5005 84.1616 37.863C84.5227 38.2134 84.7032 38.6424 84.7032 39.1499C84.7032 39.6574 84.5227 40.0924 84.1616 40.4549C83.8005 40.8174 83.3671 40.9986 82.8616 40.9986H80.3338V47.3605C80.3338 47.9043 80.4661 48.297 80.731 48.5386C80.9959 48.7802 81.387 48.9011 81.9046 48.9011C82.0491 48.9011 82.314 48.877 82.6991 48.8286C82.7592 48.8165 82.8495 48.8105 82.9699 48.8105C83.4755 48.8105 83.9028 48.9918 84.2519 49.3543C84.613 49.7046 84.7935 50.1336 84.7935 50.6411Z" fill="white"/>
</svg>
