<svg width="130" height="58" viewBox="0 0 130 58" fill="none" xmlns="http://www.w3.org/2000/svg">
<path fill-rule="evenodd" clip-rule="evenodd" d="M36.1073 1.91141C57.0487 7.55378 60.7721 17.7053 55.8281 36.2583C50.8844 54.8115 42.612 61.7309 21.6705 56.0885C0.729056 50.4462 -2.99429 40.2948 1.94961 21.7417C6.89351 3.18852 15.1658 -3.73093 36.1073 1.91141Z" fill="#5B87F8"/>
<path fill-rule="evenodd" clip-rule="evenodd" d="M23.4183 36.6708L42.3488 17.6673C43.3338 16.6786 44.9308 16.6786 45.9157 17.6673C46.9006 18.656 46.9006 20.2591 45.9157 21.2478L25.2016 42.0414C24.2167 43.0301 22.6199 43.0301 21.6349 42.0414L13.2973 33.6718C12.3124 32.6831 12.3124 31.0801 13.2973 30.0914C14.2822 29.1027 15.8791 29.1027 16.864 30.0914L23.4183 36.6708Z" fill="white"/>
<path d="M80.3833 5.70926C80.8889 5.70926 81.3222 5.89051 81.6833 6.25301C82.0444 6.61551 82.225 7.05051 82.225 7.55801C82.225 8.06551 82.0444 8.50051 81.6833 8.86301C81.3222 9.21342 80.8889 9.38863 80.3833 9.38863H75.5444V23.5443C75.5444 24.0518 75.3639 24.4868 75.0028 24.8493C74.6417 25.1996 74.2083 25.3749 73.7028 25.3749C73.1972 25.3749 72.7639 25.1996 72.4028 24.8493C72.0538 24.4868 71.8792 24.0518 71.8792 23.5443V9.38863H67.0222C66.5167 9.38863 66.0833 9.21342 65.7222 8.86301C65.3732 8.50051 65.1986 8.06551 65.1986 7.55801C65.1986 7.05051 65.3732 6.61551 65.7222 6.25301C66.0833 5.89051 66.5167 5.70926 67.0222 5.70926H80.3833ZM96.2897 23.5986C96.2897 24.1061 96.1092 24.5411 95.7481 24.9036C95.387 25.254 94.9536 25.4293 94.4481 25.4293C94.0268 25.4293 93.6477 25.2964 93.3106 25.0305C92.9856 24.7646 92.7749 24.4324 92.6786 24.0336C92.0165 24.5652 91.2943 24.964 90.512 25.2299C89.7415 25.4958 88.9532 25.6286 88.1467 25.6286H88.1286C87.1296 25.6286 86.1786 25.4352 85.2758 25.0486C84.3852 24.662 83.5907 24.1183 82.8925 23.4174C82.2064 22.7165 81.6768 21.907 81.3036 20.9886C80.9185 20.034 80.7258 19.0552 80.7258 18.0524C80.7258 16.7232 81.0449 15.4786 81.6828 14.3186C82.3328 13.1465 83.2235 12.2101 84.355 11.5093C85.4866 10.8084 86.7443 10.458 88.1286 10.458H88.1467C88.9651 10.458 89.7596 10.597 90.53 10.8749C91.3004 11.1407 92.0106 11.5274 92.6606 12.0349C92.7568 11.624 92.9675 11.2857 93.2925 11.0199C93.6296 10.742 94.0147 10.603 94.4481 10.603C94.9536 10.603 95.387 10.7843 95.7481 11.1468C96.1092 11.5093 96.2897 11.9443 96.2897 12.4518V23.5986ZM88.1286 21.9493C88.8387 21.9493 89.4768 21.768 90.0425 21.4055C90.6203 21.043 91.0717 20.5596 91.3967 19.9555C91.7217 19.3514 91.8842 18.7109 91.8842 18.0343C91.8842 17.2368 91.6675 16.5057 91.2342 15.8411C90.8852 15.3215 90.4338 14.9107 89.88 14.6086C89.3383 14.2945 88.7546 14.1374 88.1286 14.1374C87.4425 14.1374 86.8106 14.3126 86.2328 14.663C85.6671 15.0134 85.2157 15.4907 84.8786 16.0949C84.5536 16.687 84.3911 17.3395 84.3911 18.0524C84.3911 18.7533 84.5596 19.4058 84.8967 20.0099C85.2338 20.602 85.6852 21.0733 86.2508 21.4236C86.8286 21.774 87.4546 21.9493 88.1286 21.9493ZM105.143 15.8593C105.312 15.9318 105.589 16.0043 105.974 16.0768C106.973 16.3305 107.852 16.6084 108.61 16.9105C109.38 17.2126 110.079 17.702 110.705 18.3786C111.33 19.0433 111.643 19.9193 111.643 21.0068C111.643 21.8768 111.427 22.6683 110.993 23.3811C110.56 24.082 109.928 24.6439 109.098 25.0668C108.279 25.4777 107.316 25.683 106.209 25.683C105.258 25.683 104.367 25.5502 103.537 25.2843C102.706 25.0184 101.875 24.6196 101.045 24.088C100.732 23.9309 100.479 23.7074 100.287 23.4174C100.106 23.1152 100.016 22.783 100.016 22.4205C100.016 21.913 100.19 21.484 100.539 21.1336C100.9 20.7711 101.334 20.5899 101.839 20.5899C102.188 20.5899 102.519 20.6865 102.832 20.8799H102.85C103.416 21.2545 103.958 21.5384 104.475 21.7318C105.005 21.9252 105.583 22.0218 106.209 22.0218C106.702 22.0218 107.117 21.9493 107.455 21.8043C107.804 21.6471 107.978 21.3814 107.978 21.0068C107.978 20.9584 107.972 20.9221 107.96 20.898C107.96 20.8739 107.96 20.8558 107.96 20.8436C107.864 20.5899 107.539 20.3724 106.985 20.1911C106.443 19.9977 105.884 19.8408 105.306 19.7199C103.837 19.3815 102.658 18.8439 101.767 18.1068C100.888 17.3697 100.449 16.3728 100.449 15.1161V15.098V15.0799C100.449 14.089 100.678 13.2432 101.135 12.5424C101.592 11.8415 102.212 11.3099 102.995 10.9474C103.777 10.5849 104.65 10.4036 105.613 10.4036C106.491 10.4036 107.388 10.5607 108.303 10.8749C108.821 11.0561 109.392 11.3099 110.018 11.6361C110.319 11.7932 110.56 12.0168 110.741 12.3068C110.921 12.5968 111.012 12.917 111.012 13.2674C111.012 13.7749 110.831 14.2099 110.47 14.5724C110.121 14.9349 109.693 15.1161 109.188 15.1161H109.17L109.025 15.098C108.773 15.0738 108.556 15.0134 108.375 14.9168C108.279 14.8805 108.189 14.8443 108.105 14.808C108.032 14.7597 107.966 14.7234 107.906 14.6993C107.497 14.5059 107.13 14.3609 106.805 14.2643C106.48 14.1555 106.094 14.1011 105.649 14.1011C105.191 14.1011 104.848 14.1495 104.62 14.2461C104.391 14.3307 104.247 14.4455 104.187 14.5905C104.126 14.7234 104.096 14.8986 104.096 15.1161C104.096 15.1524 104.096 15.1765 104.096 15.1886C104.108 15.2007 104.114 15.2128 104.114 15.2249C104.162 15.3457 104.295 15.4665 104.512 15.5874C104.74 15.7082 104.951 15.7988 105.143 15.8593ZM127.042 22.2936C127.367 22.644 127.529 23.0609 127.529 23.5443C127.529 24.0518 127.349 24.4868 126.988 24.8493C126.638 25.1996 126.211 25.3749 125.706 25.3749C125.441 25.3749 125.188 25.3205 124.947 25.2118C124.719 25.103 124.52 24.958 124.351 24.7768L119.495 19.448L118.086 20.6986V23.5261V23.5443C118.086 24.0518 117.906 24.4868 117.545 24.8493C117.195 25.1996 116.768 25.3749 116.263 25.3749C115.757 25.3749 115.324 25.1996 114.963 24.8493C114.613 24.4868 114.439 24.0518 114.439 23.5443V23.5261V6.85113C114.439 6.34363 114.613 5.91467 114.963 5.56426C115.324 5.20176 115.757 5.02051 116.263 5.02051C116.768 5.02051 117.195 5.20176 117.545 5.56426C117.906 5.91467 118.086 6.34363 118.086 6.85113V15.7868L118.411 15.5149L118.429 15.4968H118.447V15.4786L123.665 10.8749C124.014 10.5607 124.418 10.4036 124.875 10.4036C125.381 10.4036 125.808 10.5849 126.157 10.9474C126.518 11.3099 126.699 11.7449 126.699 12.2524C126.699 12.7961 126.494 13.2553 126.085 13.6299L122.257 17.0193L127.06 22.2936H127.042ZM68.7556 35.8874C68.25 35.8874 67.8167 35.7121 67.4556 35.3618C67.0944 34.9993 66.9139 34.5643 66.9139 34.0568C66.9139 33.5493 67.0944 33.1143 67.4556 32.7518C67.8167 32.3893 68.25 32.208 68.7556 32.208C69.2611 32.208 69.6885 32.3893 70.0375 32.7518C70.3986 33.1143 70.5792 33.5493 70.5792 34.0568C70.5792 34.5643 70.3986 34.9993 70.0375 35.3618C69.6885 35.7121 69.2611 35.8874 68.7556 35.8874ZM68.7556 37.7905C69.2611 37.7905 69.6885 37.9718 70.0375 38.3343C70.3986 38.6846 70.5792 39.1136 70.5792 39.6211V50.7318C70.5792 51.2393 70.3986 51.6743 70.0375 52.0368C69.6885 52.3871 69.2611 52.5624 68.7556 52.5624C68.25 52.5624 67.8167 52.3871 67.4556 52.0368C67.0944 51.6743 66.9139 51.2393 66.9139 50.7318V39.6211C66.9139 39.1136 67.0944 38.6846 67.4556 38.3343C67.8167 37.9718 68.25 37.7905 68.7556 37.7905ZM84.7934 50.6411C84.7934 51.1002 84.643 51.5052 84.342 51.8555C84.0531 52.1939 83.6861 52.3933 83.2406 52.4536V52.4718H83.1684H83.1503C82.693 52.5321 82.2958 52.5624 81.9587 52.5624C80.8513 52.5624 79.9003 52.3389 79.1059 51.8918C78.3115 51.4326 77.7097 50.8043 77.3003 50.0068C76.891 49.1971 76.6865 48.2789 76.6865 47.2518V40.9986H75.567C75.0615 40.9986 74.6281 40.8174 74.267 40.4549C73.918 40.0924 73.7434 39.6574 73.7434 39.1499C73.7434 38.6424 73.918 38.2134 74.267 37.863C74.6281 37.5005 75.0615 37.3193 75.567 37.3193H76.6865V33.8393C76.6865 33.3318 76.8611 32.9027 77.2101 32.5524C77.5712 32.1899 78.0045 32.0086 78.5101 32.0086C79.0156 32.0086 79.443 32.1899 79.792 32.5524C80.1531 32.9027 80.3337 33.3318 80.3337 33.8393V37.3193H82.8615C83.367 37.3193 83.8003 37.5005 84.1615 37.863C84.5226 38.2134 84.7031 38.6424 84.7031 39.1499C84.7031 39.6574 84.5226 40.0924 84.1615 40.4549C83.8003 40.8174 83.367 40.9986 82.8615 40.9986H80.3337V47.3605C80.3337 47.9043 80.466 48.297 80.7309 48.5386C80.9958 48.7802 81.3869 48.9011 81.9045 48.9011C82.049 48.9011 82.3138 48.877 82.699 48.8286C82.7591 48.8165 82.8494 48.8105 82.9698 48.8105C83.4753 48.8105 83.9027 48.9918 84.2517 49.3543C84.6128 49.7046 84.7934 50.1336 84.7934 50.6411Z" fill="#121212"/>
</svg>
