<svg width="235" height="109" viewBox="0 0 235 109" fill="none" xmlns="http://www.w3.org/2000/svg">
<path d="M0 4C0 1.79086 1.79086 0 4 0H66C68.2091 0 70 1.79086 70 4V109H0V4Z" fill="#5B87F8"/>
<rect x="7" y="19" width="56" height="27" rx="2" fill="#FCFDFF"/>
<rect x="7" y="53" width="56" height="27" rx="2" fill="#FCFDFF"/>
<rect x="7" y="87" width="56" height="15" rx="2" fill="#FCFDFF"/>
<rect x="7" y="7" width="33" height="6" rx="2" fill="#FCFDFF"/>
<rect x="82.4834" width="70.0331" height="79.3709" rx="4" fill="#5B87F8"/>
<rect x="89" y="19" width="56" height="27" rx="2" fill="#FCFDFF"/>
<rect x="89" y="53" width="56" height="19" rx="2" fill="#FCFDFF"/>
<rect x="89" y="7" width="25" height="6" rx="2" fill="#FCFDFF"/>
<path d="M165 4C165 1.79086 166.791 0 169 0H231C233.209 0 235 1.79086 235 4V109H165V4Z" fill="#5B87F8"/>
<rect x="172" y="19" width="56" height="27" rx="2" fill="#FCFDFF"/>
<rect x="172" y="53" width="56" height="14" rx="2" fill="#FCFDFF"/>
<rect x="172" y="74" width="56" height="28" rx="2" fill="#FCFDFF"/>
<rect x="172" y="7" width="25" height="6" rx="2" fill="#FCFDFF"/>
</svg>
