<svg width="120" height="120" viewBox="0 0 120 120" fill="none" xmlns="http://www.w3.org/2000/svg">
<g clip-path="url(#clip0_616_652)">
<path d="M97.7141 77.9287C98.1789 77.6618 98.5652 77.2774 98.8345 76.814C99.1037 76.3507 99.2464 75.8246 99.2481 75.2887L99.3031 57.6058C99.3047 57.0698 99.4473 56.5436 99.7166 56.0802C99.9858 55.6167 100.372 55.2322 100.837 54.9653L110.423 49.4593C110.887 49.1925 111.414 49.0524 111.949 49.0533C112.485 49.0542 113.011 49.1959 113.475 49.4642C113.939 49.7326 114.324 50.1181 114.591 50.5822C114.859 51.0463 115 51.5726 115 52.1083V84.2567C115 84.7942 114.858 85.3223 114.589 85.7874C114.319 86.2526 113.932 86.6385 113.466 86.9062L77.2906 107.685C76.8285 107.95 76.305 108.09 75.7721 108.09C75.2392 108.091 74.7154 107.952 74.2527 107.688L45.8633 91.4497C45.3956 91.1826 45.0067 90.7967 44.7362 90.3309C44.4657 89.8652 44.3231 89.3362 44.3229 88.7976V72.5872C44.3229 72.5692 44.3443 72.5572 44.3628 72.5658C44.3779 72.5752 44.3993 72.5658 44.3993 72.5443V72.5262C44.3993 72.5142 44.4054 72.5017 44.4178 72.4957L67.7997 59.0633C67.8212 59.0508 67.8117 59.0173 67.7872 59.0173C67.7807 59.0173 67.7745 59.0147 67.7699 59.0101C67.7653 59.0055 67.7627 58.9993 67.7627 58.9928L67.8087 43.1004C67.8109 42.5629 67.6713 42.0344 67.404 41.5682C67.1367 41.102 66.7512 40.7145 66.2863 40.4448C65.8214 40.1752 65.2936 40.0329 64.7561 40.0324C64.2187 40.0319 63.6906 40.1731 63.2252 40.4419L45.8478 50.4558C45.384 50.7228 44.8582 50.8634 44.3231 50.8634C43.7879 50.8634 43.2621 50.7228 42.7983 50.4558L25.3659 40.4183C24.9015 40.1508 24.3749 40.0102 23.839 40.0105C23.303 40.0109 22.7766 40.1522 22.3125 40.4202C21.8485 40.6883 21.4631 41.0737 21.195 41.5378C20.927 42.0019 20.7857 42.5284 20.7854 43.0643V71.7872C20.7858 72.3225 20.6456 72.8486 20.3787 73.3127C20.1118 73.7768 19.7277 74.1626 19.2648 74.4315C18.8019 74.7004 18.2764 74.843 17.7411 74.8449C17.2057 74.8469 16.6793 74.7082 16.2144 74.4426L6.54 68.9108C6.07154 68.6433 5.68228 68.2564 5.41179 67.7896C5.1413 67.3228 4.99922 66.7927 5 66.2532L5.08594 16.0485C5.08731 15.5135 5.22915 14.9882 5.49727 14.5252C5.76539 14.0622 6.15039 13.6777 6.61375 13.4102C7.07712 13.1427 7.6026 13.0015 8.13764 13.0009C8.67268 13.0002 9.19851 13.14 9.66254 13.4064L42.8013 32.439C43.2644 32.7049 43.7891 32.8449 44.3231 32.8449C44.8571 32.8449 45.3817 32.7049 45.8448 32.439L78.9737 13.4055C79.4385 13.1385 79.9653 12.9985 80.5013 12.9995C81.0373 13.0005 81.5636 13.1425 82.0274 13.4112C82.4912 13.6799 82.8761 14.0659 83.1436 14.5304C83.4111 14.9949 83.5516 15.5216 83.5512 16.0576V66.2739C83.5515 66.811 83.4101 67.3388 83.1414 67.804C82.8727 68.2691 82.4861 68.6552 82.0206 68.9233L64.6707 78.9153C64.2046 79.1839 63.8178 79.5708 63.5492 80.0368C63.2806 80.5029 63.1397 81.0316 63.141 81.5695C63.1422 82.1074 63.2854 82.6355 63.5561 83.1003C63.8268 83.5651 64.2155 83.9502 64.6827 84.2167L74.2532 89.6652C74.7157 89.9284 75.2389 90.0663 75.771 90.0651C76.3032 90.064 76.8258 89.9239 77.2872 89.6587L97.7145 77.9283L97.7141 77.9287ZM99.7216 32.8824C99.722 33.4228 99.8657 33.9535 100.138 34.4202C100.41 34.887 100.802 35.2731 101.272 35.5393C101.742 35.8055 102.275 35.9422 102.815 35.9355C103.356 35.9287 103.885 35.7788 104.348 35.5009L113.515 30.0009C113.968 29.7298 114.342 29.3461 114.602 28.8872C114.863 28.4284 115 27.9099 115 27.3824V16.174C114.999 15.6339 114.855 15.1036 114.582 14.6373C114.31 14.1709 113.918 13.7852 113.448 13.5194C112.978 13.2535 112.446 13.1171 111.906 13.124C111.365 13.1309 110.837 13.2808 110.374 13.5585L101.207 19.0585C100.754 19.3296 100.38 19.7134 100.119 20.1723C99.859 20.6313 99.722 21.1498 99.7216 21.6774V32.8854V32.8824Z" fill="#007FFF"/>
</g>
<defs>
<clipPath id="clip0_616_652">
<rect width="110" height="95.3906" fill="white" transform="translate(5 13)"/>
</clipPath>
</defs>
</svg>
