<svg width="120" height="120" viewBox="0 0 120 120" fill="none" xmlns="http://www.w3.org/2000/svg">
<g clip-path="url(#clip0_619_239)">
<path d="M32.4286 94.7111H31.2956L25.6401 89.0557V87.9227L34.2858 79.2771H40.2754L41.0742 80.0758V86.0655L32.4286 94.7111ZM25.6401 30.746V29.613L31.2956 23.9575H32.4286L41.0742 32.6031V38.5928L40.2754 39.3916H34.2858L25.6401 30.746Z" fill="#05BDBA"/>
<path d="M75.4246 76.4821H67.1971L66.5099 75.7949V56.5344C66.5099 53.1079 65.1632 50.4519 61.0307 50.3591C58.904 50.3033 56.4712 50.3591 53.871 50.4613L53.4805 50.8607V75.7855L52.7933 76.4727H44.5658L43.8787 75.7855V42.8839L44.5658 42.1963H63.0829C70.2801 42.1963 76.1118 48.028 76.1118 55.2252V75.7949L75.4246 76.4821Z" fill="#014847"/>
<path d="M33.5986 64.1496H0.687187L0 63.4624V55.2157L0.687187 54.5285H33.5986L34.2858 55.2157V63.4624L33.5986 64.1496ZM119.313 64.1496H86.4014L85.7142 63.4624V55.2157L86.4014 54.5285H119.313L120 55.2157V63.4624L119.313 64.1496ZM55.2544 31.916V7.2326L55.9416 6.54541H64.1883L64.8755 7.2326V31.916L64.1883 32.6032H55.9416L55.2544 31.916ZM55.2544 111.446V86.7621L55.9416 86.0749H64.1883L64.8755 86.7621V111.446L64.1883 112.132H55.9416L55.2544 111.446Z" fill="#05BDBA"/>
</g>
<defs>
<clipPath id="clip0_619_239">
<rect width="120" height="105.938" fill="white" transform="translate(0 6.54541)"/>
</clipPath>
</defs>
</svg>
