<svg width="120" height="120" viewBox="0 0 120 120" fill="none" xmlns="http://www.w3.org/2000/svg">
<path d="M60 69.7969C65.4107 69.7969 69.7969 65.4107 69.7969 60C69.7969 54.5893 65.4107 50.2031 60 50.2031C54.5893 50.2031 50.2031 54.5893 50.2031 60C50.2031 65.4107 54.5893 69.7969 60 69.7969Z" fill="#61DAFB"/>
<path d="M97.2109 43.8437C95.3203 43.1562 93.3438 42.4688 91.2812 41.8672C91.7969 39.8047 92.2266 37.7422 92.5703 35.7656C94.375 24.4219 92.3984 16.4297 86.8984 13.3359C85.2656 12.3906 83.4609 11.9609 81.3984 11.9609C75.3828 11.9609 67.7344 16.4297 60 23.9062C52.2656 16.4297 44.6172 11.9609 38.6016 11.9609C36.5391 11.9609 34.7344 12.3906 33.1016 13.3359C27.6016 16.5156 25.625 24.5078 27.4297 35.7656C27.7734 37.7422 28.2031 39.8047 28.7188 41.8672C26.6562 42.4688 24.6797 43.0703 22.7891 43.8437C12.0469 47.9688 6.20312 53.6406 6.20312 60C6.20312 66.3594 12.1328 72.0313 22.7891 76.1563C24.6797 76.8438 26.6562 77.5312 28.7188 78.1328C28.2031 80.1953 27.7734 82.2578 27.4297 84.2344C25.625 95.5781 27.6016 103.57 33.1016 106.664C34.7344 107.609 36.5391 108.039 38.6016 108.039C44.7031 108.039 52.3516 103.57 60 96.0938C67.7344 103.57 75.3828 108.039 81.3984 108.039C83.4609 108.039 85.2656 107.609 86.8984 106.664C92.3984 103.484 94.375 95.4922 92.5703 84.2344C92.2266 82.2578 91.7969 80.1953 91.2812 78.1328C93.3438 77.5312 95.3203 76.9297 97.2109 76.1563C107.953 72.0313 113.797 66.3594 113.797 60C113.797 53.6406 107.953 47.9688 97.2109 43.8437ZM84.4922 17.6328C88.0156 19.6953 89.2188 26.0547 87.7578 35.0781C87.5 36.8828 87.0703 38.7734 86.5547 40.75C82.0859 39.7188 77.3594 39.0312 72.375 38.6016C69.4531 34.4766 66.4453 30.7812 63.4375 27.4297C69.7969 21.1562 76.2422 16.8594 81.4844 16.8594C82.6016 16.8594 83.6328 17.1172 84.4922 17.6328ZM74.8672 68.5938C73.3203 71.3438 71.5156 74.0938 69.625 76.8438C66.4453 77.1016 63.2656 77.1875 60 77.1875C56.6484 77.1875 53.4687 77.1016 50.375 76.8438C48.4844 74.0938 46.7656 71.3438 45.2187 68.5938C43.5859 65.7578 42.0391 62.8359 40.6641 60C42.0391 57.1641 43.5859 54.2422 45.2187 51.4062C46.7656 48.6562 48.5703 45.9063 50.4609 43.1563C53.6406 42.8984 56.8203 42.8125 60.0859 42.8125C63.4375 42.8125 66.6172 42.8984 69.7109 43.1563C71.6016 45.9063 73.3203 48.6562 74.8672 51.4062C76.5 54.2422 78.0469 57.1641 79.4219 60C77.9609 62.8359 76.5 65.6719 74.8672 68.5938ZM82 65.7578C83.2891 68.7656 84.3203 71.6875 85.2656 74.6094C82.3438 75.2969 79.25 75.8125 75.9844 76.2422C77.0156 74.6094 78.1328 72.8906 79.0781 71.0859C80.1094 69.2813 81.0547 67.4766 82 65.7578ZM60 89.0469C57.9375 86.8125 55.9609 84.4062 54.0703 81.9141C56.0469 82 58.0234 82.0859 60 82.0859C61.9766 82.0859 63.9531 82 65.9297 81.9141C64.0391 84.4062 62.0625 86.8125 60 89.0469ZM44.0156 76.1563C40.75 75.7266 37.6562 75.2109 34.7344 74.5234C35.6797 71.6875 36.7109 68.6797 38 65.6719C38.9453 67.3906 39.8906 69.1953 40.9219 70.9141C41.9531 72.8047 42.9844 74.4375 44.0156 76.1563ZM38 54.2422C36.7109 51.2344 35.6797 48.3125 34.7344 45.3906C37.6562 44.7031 40.75 44.1875 44.0156 43.7578C42.9844 45.3906 41.8672 47.1094 40.9219 48.9141C39.8906 50.7188 38.9453 52.5234 38 54.2422ZM60 30.9531C62.0625 33.1875 64.0391 35.5938 65.9297 38.0859C63.9531 38 61.9766 37.9141 60 37.9141C58.0234 37.9141 56.0469 38 54.0703 38.0859C55.9609 35.5938 57.9375 33.1875 60 30.9531ZM79.0781 49L75.9844 43.8437C79.25 44.2734 82.3438 44.7891 85.2656 45.4766C84.3203 48.3125 83.2891 51.3203 82 54.3281C81.0547 52.5234 80.1094 50.7188 79.0781 49ZM32.2422 35.0781C30.7812 26.0547 31.9844 19.6953 35.5078 17.6328C36.3672 17.1172 37.3984 16.8594 38.5156 16.8594C43.6719 16.8594 50.1172 21.0703 56.5625 27.4297C53.5547 30.6953 50.5469 34.4766 47.625 38.6016C42.6406 39.0312 37.9141 39.8047 33.4453 40.75C32.9297 38.7734 32.5859 36.8828 32.2422 35.0781ZM11.0156 60C11.0156 55.9609 15.9141 51.6641 24.5078 48.4844C26.2266 47.7969 28.1172 47.1953 30.0078 46.6797C31.3828 50.9766 33.1016 55.5312 35.1641 60.0859C33.1016 64.6406 31.2969 69.1094 30.0078 73.4062C18.1484 69.9688 11.0156 64.8125 11.0156 60ZM35.5078 102.367C31.9844 100.305 30.7812 93.9453 32.2422 84.9219C32.5 83.1172 32.9297 81.2266 33.4453 79.25C37.9141 80.2812 42.6406 80.9688 47.625 81.3984C50.5469 85.5234 53.5547 89.2188 56.5625 92.5703C50.2031 98.8438 43.7578 103.141 38.5156 103.141C37.3984 103.141 36.3672 102.883 35.5078 102.367ZM87.7578 84.9219C89.2188 93.9453 88.0156 100.305 84.4922 102.367C83.6328 102.883 82.6016 103.141 81.4844 103.141C76.3281 103.141 69.8828 98.9297 63.4375 92.5703C66.4453 89.3047 69.4531 85.5234 72.375 81.3984C77.3594 80.9688 82.0859 80.1953 86.5547 79.25C87.0703 81.2266 87.4141 83.1172 87.7578 84.9219ZM95.4922 71.5156C93.7734 72.2031 91.8828 72.8047 89.9922 73.3203C88.6172 69.0234 86.8984 64.4688 84.8359 59.9141C86.8984 55.3594 88.7031 50.8906 89.9922 46.5938C101.852 50.0313 108.984 55.1875 108.984 60C108.984 64.0391 104 68.3359 95.4922 71.5156Z" fill="#61DAFB"/>
</svg>
