<svg width="120" height="120" viewBox="0 0 120 120" fill="none" xmlns="http://www.w3.org/2000/svg">
<g clip-path="url(#clip0_616_677)">
<path d="M81.2184 80.3452C85.2776 79.9284 88.3572 76.4572 88.2171 72.2912C88.0775 68.1256 84.5777 64.793 80.3783 64.793H80.0986C75.7588 64.9319 72.3995 68.5421 72.5396 72.8466C72.6796 74.9295 73.5193 76.7346 74.7791 77.9843C70.0199 87.2881 62.741 94.092 51.8226 99.7851C44.4036 103.673 36.7049 105.062 29.0062 104.09C22.707 103.257 17.8077 100.48 14.7277 95.8971C10.2486 89.0932 9.82882 81.7334 13.6084 74.3742C16.2681 69.0974 20.467 65.2094 23.1268 63.2653C22.5669 61.4603 21.7269 58.4055 21.3071 56.184C1.00992 70.764 3.1098 90.4818 9.26894 99.7851C13.8881 106.728 23.2669 111.033 33.6253 111.033C36.4248 111.033 39.2242 110.755 42.024 110.061C59.9416 106.589 73.5197 96.036 81.2184 80.3452ZM105.855 63.1268C95.2163 50.7683 79.5387 43.9644 61.6212 43.9644H59.3817C58.1218 41.465 55.4621 39.7984 52.5226 39.7984H52.2424C47.9034 39.9374 44.5441 43.5475 44.6838 47.8525C44.8239 52.018 48.3232 55.3507 52.5226 55.3507H52.8023C55.8819 55.2117 58.5416 53.2677 59.6614 50.6293H62.1811C72.8197 50.6293 82.898 53.6841 91.9971 59.6552C98.9959 64.2376 104.035 70.2086 106.835 77.429C109.214 83.2611 109.074 88.9542 106.554 93.8145C102.635 101.174 96.0564 105.201 87.3775 105.201C81.7783 105.201 76.4592 103.534 73.6593 102.285C72.1198 103.673 69.3199 105.895 67.3601 107.284C73.3796 110.061 79.5387 111.588 85.4177 111.588C98.8558 111.588 108.794 104.229 112.574 96.8693C116.633 88.8153 116.353 74.9295 105.855 63.1268ZM34.7451 82.7053C34.8852 86.8712 38.3846 90.2035 42.5839 90.2035H42.8641C47.2035 90.065 50.5628 86.4544 50.4227 82.1499C50.283 77.9839 46.7832 74.6516 42.5839 74.6516H42.3042C42.024 74.6516 41.6038 74.6516 41.3245 74.7902C35.5851 65.3479 33.2055 55.0728 34.0456 43.964C34.605 35.6325 37.4049 28.4117 42.3042 22.4407C46.3634 17.3029 54.2022 14.8035 59.5218 14.665C74.3593 14.387 80.6581 32.7162 81.0783 40.0759C82.898 40.4923 85.9776 41.4646 88.0775 42.1589C86.3974 19.6642 72.3995 8 58.9619 8C46.3634 8 34.7451 17.0258 30.1255 30.3562C23.6867 48.1299 27.886 65.2094 35.7248 78.6787C35.0253 79.6505 34.605 81.1776 34.7451 82.7053Z" fill="#764ABC"/>
</g>
<defs>
<clipPath id="clip0_616_677">
<rect width="110" height="104" fill="white" transform="translate(5 8)"/>
</clipPath>
</defs>
</svg>
