<svg width="120" height="120" viewBox="0 0 120 120" fill="none" xmlns="http://www.w3.org/2000/svg">
<g clip-path="url(#clip0_616_713)">
<path d="M13.5938 5H106.406C111.153 5 115 8.84742 115 13.5938V106.406C115 111.153 111.153 115 106.406 115H13.5938C8.84742 115 5 111.153 5 106.406V13.5938C5 8.84742 8.84742 5 13.5938 5Z" fill="#3178C6"/>
<path d="M69.6757 91.1416V103.01C71.6059 103.999 73.8888 104.74 76.5241 105.235C79.1593 105.729 81.9368 105.977 84.857 105.977C87.7024 105.977 90.406 105.705 92.9669 105.161C95.5279 104.617 97.7738 103.72 99.7036 102.472C101.634 101.223 103.162 99.5914 104.288 97.5762C105.414 95.5614 105.977 93.0705 105.977 90.1035C105.977 87.9525 105.655 86.067 105.011 84.4475C104.375 82.839 103.429 81.371 102.228 80.127C101.015 78.8659 99.5613 77.7349 97.8666 76.7333C96.1715 75.7321 94.2598 74.7864 92.1316 73.8965C90.5727 73.2533 89.1749 72.6294 87.9374 72.0235C86.7004 71.4177 85.6485 70.7998 84.7827 70.169C83.9164 69.5386 83.2482 68.8709 82.7782 68.1662C82.3081 67.4615 82.073 66.6645 82.073 65.7741C82.073 64.9582 82.2832 64.223 82.7038 63.5677C83.1245 62.9124 83.7188 62.35 84.4857 61.8803C85.2527 61.4102 86.1929 61.0459 87.3066 60.7859C88.42 60.5264 89.6575 60.3966 91.0183 60.3966C92.0083 60.3966 93.0537 60.4709 94.1546 60.6192C95.2559 60.7674 96.3632 60.996 97.4769 61.3054C98.5871 61.6132 99.6727 62.0037 100.724 62.4737C101.744 62.9257 102.72 63.4719 103.638 64.1052V53.0163C101.832 52.3241 99.8582 51.811 97.718 51.4771C95.5777 51.1433 93.1216 50.9766 90.3501 50.9766C87.5292 50.9766 84.857 51.2795 82.333 51.8854C79.809 52.4908 77.588 53.4365 75.6703 54.7221C73.7526 56.0082 72.2371 57.6462 71.1233 59.6365C70.01 61.6268 69.4531 64.0064 69.4531 66.7757C69.4531 70.3112 70.4736 73.3276 72.5155 75.825C74.557 78.3219 77.6559 80.4359 81.8131 82.1667C83.3478 82.7917 84.8699 83.4471 86.3785 84.1325C87.7892 84.7753 89.0078 85.4427 90.0347 86.1349C91.0617 86.8271 91.8721 87.5812 92.4659 88.3972C93.0597 89.2132 93.3566 90.1404 93.3566 91.179C93.3616 91.9264 93.1695 92.6619 92.7998 93.3115C92.4289 93.9664 91.8656 94.5353 91.1111 95.0174C90.3566 95.4995 89.416 95.8763 88.2902 96.1483C87.1644 96.4203 85.8466 96.5565 84.3371 96.5565C81.7637 96.5565 79.2152 96.1054 76.6912 95.2026C74.1668 94.3002 71.8284 92.9467 69.6757 91.1416ZM49.8946 61.6079H65.1562V51.8359H22.6172V61.6079H37.8045V105.117H49.8946V61.6079Z" fill="white"/>
</g>
<defs>
<clipPath id="clip0_616_713">
<rect width="110" height="110" fill="white" transform="translate(5 5)"/>
</clipPath>
</defs>
</svg>
