<svg width="120" height="120" viewBox="0 0 120 120" fill="none" xmlns="http://www.w3.org/2000/svg">
<g clip-path="url(#clip0_616_855)">
<path d="M114.506 21.3162L62.9186 113.563C62.6763 113.997 62.3231 114.359 61.8951 114.611C61.4671 114.864 60.9796 114.998 60.4827 115C59.9858 115.002 59.4973 114.871 59.0673 114.623C58.6372 114.374 58.2811 114.015 58.0354 113.583L5.42708 21.324C5.16259 20.8611 5.03561 20.3324 5.06106 19.7998C5.0865 19.2673 5.26331 18.7531 5.57073 18.3175C5.87816 17.8819 6.30344 17.543 6.79669 17.3406C7.28993 17.1383 7.83066 17.0808 8.35543 17.1749L59.9981 26.4074C60.3265 26.4666 60.6628 26.4666 60.9912 26.4074L111.554 17.1906C112.077 17.0951 112.616 17.1501 113.109 17.3493C113.602 17.5486 114.027 17.8837 114.337 18.3157C114.646 18.7478 114.826 19.2589 114.856 19.7894C114.886 20.32 114.765 20.852 114.506 21.3162Z" fill="url(#paint0_linear_616_855)"/>
<path d="M84.5946 5.0691L46.424 12.547C46.1184 12.6067 45.8414 12.7664 45.6367 13.0009C45.432 13.2355 45.3112 13.5316 45.2935 13.8424L42.9461 53.5047C42.9331 53.7223 42.9711 53.9399 43.057 54.1402C43.1429 54.3406 43.2743 54.5181 43.4409 54.6587C43.6074 54.7993 43.8045 54.8992 44.0164 54.9503C44.2282 55.0014 44.4491 55.0024 44.6615 54.9532L55.2876 52.4998C55.5165 52.4469 55.755 52.4524 55.9813 52.5158C56.2075 52.5792 56.4142 52.6985 56.5822 52.8627C56.7503 53.0268 56.8744 53.2306 56.9431 53.4553C57.0119 53.68 57.023 53.9184 56.9755 54.1485L53.8195 69.6106C53.7708 69.8487 53.7848 70.0953 53.8602 70.3263C53.9355 70.5572 54.0697 70.7647 54.2494 70.9281C54.4291 71.0916 54.6483 71.2056 54.8853 71.2588C55.1224 71.3121 55.3692 71.3028 55.6016 71.2318L62.1649 69.2377C62.3976 69.1665 62.6449 69.1571 62.8824 69.2105C63.1199 69.2639 63.3393 69.3783 63.5192 69.5423C63.699 69.7063 63.8331 69.9143 63.9081 70.1459C63.9831 70.3774 63.9965 70.6245 63.947 70.8628L58.9264 95.1493C58.6124 96.6684 60.634 97.4967 61.4779 96.1974L62.0393 95.326L93.1481 33.2457C93.2649 33.0118 93.3139 32.7498 93.2896 32.4895C93.2653 32.2292 93.1687 31.9809 93.0106 31.7726C92.8526 31.5644 92.6395 31.4044 92.3953 31.311C92.1511 31.2175 91.8857 31.1942 91.629 31.2437L80.6889 33.3517C80.4534 33.3967 80.2103 33.3806 79.9828 33.3049C79.7553 33.2291 79.551 33.0963 79.3895 32.9191C79.2281 32.7418 79.1148 32.5261 79.0605 32.2926C79.0062 32.0591 79.0127 31.8155 79.0794 31.5852L86.2158 6.83161C86.2831 6.60057 86.2897 6.35611 86.2351 6.12177C86.1804 5.88743 86.0664 5.6711 85.9039 5.49363C85.7414 5.31615 85.536 5.18351 85.3073 5.10846C85.0787 5.03342 84.8346 5.01851 84.5986 5.06517L84.5946 5.0691Z" fill="url(#paint1_linear_616_855)"/>
</g>
<defs>
<linearGradient id="paint0_linear_616_855" x1="4.14159" y1="13.877" x2="68.3423" y2="101.067" gradientUnits="userSpaceOnUse">
<stop stop-color="#41D1FF"/>
<stop offset="1" stop-color="#BD34FE"/>
</linearGradient>
<linearGradient id="paint1_linear_616_855" x1="57.0303" y1="7.09768" x2="68.6439" y2="86.7657" gradientUnits="userSpaceOnUse">
<stop stop-color="#FFEA83"/>
<stop offset="0.083" stop-color="#FFDD35"/>
<stop offset="1" stop-color="#FFA800"/>
</linearGradient>
<clipPath id="clip0_616_855">
<rect width="110" height="110" fill="white" transform="translate(5 5)"/>
</clipPath>
</defs>
</svg>
