<svg width="50" height="50" viewBox="0 0 50 50" fill="none" xmlns="http://www.w3.org/2000/svg">
<rect width="50" height="50" fill="white"/>
<path d="M39.0627 38.0208V17.1875H18.2293V15.8854C18.2293 13.7312 19.9814 11.9791 22.1356 11.9791H26.0418V4.16663H22.1356C19.0288 4.17049 16.0503 5.40637 13.8534 7.60323C11.6566 9.80009 10.4207 12.7786 10.4168 15.8854V17.1875H5.2085V25H10.4168V38.0208H5.2085V45.8333H23.4377V38.0208H18.2293V25H31.3231V38.0208H26.0418V45.8333H44.271V38.0208H39.0627Z" fill="black"/>
<path d="M35.1562 11.9791C37.3136 11.9791 39.0625 10.2302 39.0625 8.07288C39.0625 5.91551 37.3136 4.16663 35.1562 4.16663C32.9989 4.16663 31.25 5.91551 31.25 8.07288C31.25 10.2302 32.9989 11.9791 35.1562 11.9791Z" fill="black"/>
</svg>
