<svg width="50" height="50" viewBox="0 0 50 50" fill="none" xmlns="http://www.w3.org/2000/svg">
<rect width="50" height="50" fill="white"/>
<path d="M44.8813 14.8C44.9117 15.241 44.9117 15.6816 44.9117 16.1266C44.9117 29.6812 34.5926 45.3141 15.7242 45.3141V45.3062C10.15 45.3141 4.69138 43.7174 0 40.707C0.810547 40.8047 1.625 40.8535 2.44141 40.8555C7.06137 40.8592 11.5485 39.3096 15.1816 36.4559C13.041 36.4154 10.9665 35.707 9.24821 34.4298C7.52992 33.1525 6.25372 31.3702 5.59805 29.332C7.13594 29.6289 8.72031 29.5676 10.2297 29.1551C5.44375 28.1883 2.00078 23.9836 2.00078 19.1004V18.9703C3.42746 19.7651 5.02424 20.2055 6.65664 20.2543C2.14844 17.2418 0.759766 11.2453 3.48164 6.55742C6.05699 9.72642 9.27015 12.3183 12.9124 14.1646C16.5547 16.0109 20.5446 17.0704 24.623 17.2742C24.2165 15.5237 24.2767 13.6972 24.7975 11.9773C25.3184 10.2573 26.2817 8.70429 27.591 7.47343C31.7227 3.58945 38.2207 3.78867 42.1043 7.91835C44.4016 7.46473 46.6047 6.62244 48.6187 5.42773C47.8529 7.803 46.2504 9.81928 44.1094 11.1016C46.1428 10.8618 48.1286 10.3173 50 9.48632C48.6234 11.5479 46.89 13.3473 44.8813 14.8Z" fill="#1D9BF0"/>
</svg>
