<svg width="50" height="50" viewBox="0 0 50 50" fill="none" xmlns="http://www.w3.org/2000/svg">
<rect width="50" height="50" fill="white"/>
<path d="M36.3957 12.6458C34.2231 12.6841 32.1299 13.4692 30.4681 14.8692C28.8062 16.2692 27.6772 18.1987 27.2707 20.3333C25.2305 17.1624 23.6324 13.7279 22.5207 10.125H17.8123V22.625C17.8123 23.8074 17.3426 24.9414 16.5065 25.7775C15.6704 26.6136 14.5364 27.0833 13.354 27.0833C12.1716 27.0833 11.0376 26.6136 10.2015 25.7775C9.36539 24.9414 8.89567 23.8074 8.89567 22.625V10.125L4.1665 10.2292V22.7292C4.18032 25.1603 5.15934 27.4864 6.88819 29.1957C8.61704 30.905 10.9541 31.8576 13.3853 31.8437C15.8164 31.8299 18.1425 30.8509 19.8518 29.1221C21.5611 27.3932 22.5137 25.0561 22.4998 22.625V20.5417C23.4994 22.5022 24.6486 24.3828 25.9373 26.1667L23.0623 39.9375H27.8957L29.979 29.9167C31.9098 31.1575 34.1632 31.8024 36.4582 31.7708C38.9832 31.7708 41.4049 30.7677 43.1904 28.9822C44.9759 27.1967 45.979 24.7751 45.979 22.25C45.979 19.7249 44.9759 17.3033 43.1904 15.5178C41.4049 13.7323 38.9832 12.7292 36.4582 12.7292L36.3957 12.6458ZM36.3957 26.875C34.438 26.8118 32.5619 26.0761 31.0832 24.7917L31.5623 22.8958V22.7917C31.8957 20.7083 32.9373 17.375 36.4582 17.375C37.0755 17.3695 37.6878 17.486 38.26 17.7178C38.8322 17.9496 39.3529 18.2922 39.7923 18.7258C40.2317 19.1594 40.5812 19.6755 40.8206 20.2446C41.06 20.8136 41.1846 21.4243 41.1873 22.0417C41.1427 23.2916 40.6331 24.4799 39.7584 25.3738C38.8837 26.2678 37.7068 26.8031 36.4582 26.875H36.3957Z" fill="black"/>
</svg>
