<svg width="18" height="18" viewBox="0 0 18 18" fill="none" xmlns="http://www.w3.org/2000/svg">
<path d="M1.5 1.5V16.5H16.5V1.5H1.5ZM7.71875 6.50125H8.84688C8.885 6.50125 8.91625 6.5325 8.91625 6.57062V11.425C8.91625 11.4631 8.885 11.4944 8.8475 11.4944H7.71875C7.70046 11.4944 7.68291 11.4872 7.66991 11.4743C7.65692 11.4614 7.64954 11.4439 7.64937 11.4256V9.63188H6.43375V11.4256C6.43375 11.4631 6.4025 11.4944 6.365 11.4944H5.235C5.22597 11.4944 5.21703 11.4926 5.20869 11.4891C5.20035 11.4857 5.19277 11.4806 5.18639 11.4742C5.18 11.4679 5.17494 11.4603 5.17148 11.4519C5.16803 11.4436 5.16625 11.4347 5.16625 11.4256V6.57C5.16625 6.5325 5.1975 6.50125 5.235 6.50125H6.36375C6.40188 6.50125 6.4325 6.5325 6.4325 6.57V8.36312H7.65V6.56938C7.65 6.53188 7.68125 6.50125 7.71875 6.50125ZM9.59313 6.50125H13.2044C13.2425 6.50125 13.2737 6.5325 13.2737 6.57V11.4244C13.2739 11.4335 13.2723 11.4426 13.2689 11.4511C13.2655 11.4596 13.2605 11.4673 13.2541 11.4738C13.2477 11.4803 13.24 11.4855 13.2316 11.489C13.2232 11.4926 13.2141 11.4944 13.205 11.4944H9.5925C9.57427 11.4944 9.55678 11.4871 9.54389 11.4742C9.53099 11.4613 9.52375 11.4439 9.52375 11.4256V6.56938C9.52375 6.53188 9.555 6.50063 9.5925 6.50063L9.59313 6.50125Z" fill="black"/>
</svg>
