<svg width="50" height="50" viewBox="0 0 50 50" fill="none" xmlns="http://www.w3.org/2000/svg">
<g clip-path="url(#clip0_154_90)">
<path d="M28.0896 -0.000101564C27.7122 0.012424 27.341 0.0994989 26.9974 0.256107C26.6538 0.412716 26.3446 0.635762 26.0875 0.912398L14.825 12.9707L6.79586 21.5666C5.62649 22.8117 4.76401 24.3126 4.27711 25.9499C4.17277 26.3016 4.08586 26.6583 4.01669 27.0186C3.70454 28.6491 3.7486 30.3277 4.14586 31.9395C4.32244 32.6666 4.56584 33.3759 4.87294 34.0582C5.50984 35.4758 6.40815 36.7608 7.52086 37.8457L16.4313 46.5811L16.5125 46.6603C21.1959 51.1707 28.7042 51.1041 33.3104 46.5061L38.3021 41.5228C39.4271 40.3978 39.4271 38.577 38.3084 37.4499C38.0421 37.1822 37.7257 36.9697 37.3772 36.8245C37.0286 36.6792 36.6549 36.6042 36.2774 36.6036C35.8998 36.603 35.5259 36.6769 35.1769 36.8211C34.8279 36.9652 34.5109 37.1768 34.2438 37.4436L29.2521 42.427C28.0883 43.5756 26.5231 44.2262 24.8879 44.241C23.2528 44.2558 21.6761 43.6336 20.4917 42.5061L20.45 42.4666L11.5417 33.7311C10.1834 32.3978 9.51669 30.6707 9.56669 29.0166C9.57661 28.6497 9.62267 28.2848 9.70419 27.927C9.91359 27.0194 10.3584 26.183 10.9938 25.502L19.0209 16.9041C21.225 14.5416 25.6959 14.2582 28.25 16.3249L35.5438 22.2228C36.7792 23.2228 38.5875 23.0291 39.5854 21.7916C40.0638 21.1971 40.287 20.4372 40.2062 19.6785C40.1254 18.9198 39.7471 18.224 39.1542 17.7436L31.8625 11.8457C30.1959 10.4978 28.1834 9.66865 26.0834 9.34157L30.2813 4.84573C30.6682 4.42965 30.9236 3.90851 31.0154 3.34776C31.1072 2.78701 31.0312 2.21164 30.7971 1.69392C30.5629 1.1762 30.181 0.739201 29.6993 0.43781C29.2176 0.136419 28.6576 -0.0159287 28.0896 -0.000101564ZM22.1188 26.6978C21.7409 26.6978 21.3667 26.7723 21.0176 26.9171C20.6685 27.0618 20.3514 27.2739 20.0844 27.5414C19.8173 27.8088 19.6057 28.1262 19.4614 28.4755C19.3172 28.8248 19.2432 29.1991 19.2438 29.577C19.2432 29.9549 19.3172 30.3292 19.4614 30.6785C19.6057 31.0278 19.8173 31.3452 20.0844 31.6126C20.3514 31.88 20.6685 32.0922 21.0176 32.2369C21.3667 32.3816 21.7409 32.4561 22.1188 32.4561H43.3125C43.6904 32.4561 44.0646 32.3816 44.4137 32.2369C44.7628 32.0922 45.0799 31.88 45.3469 31.6126C45.614 31.3452 45.8256 31.0278 45.9699 30.6785C46.1141 30.3292 46.1881 29.9549 46.1875 29.577C46.1881 29.1991 46.1141 28.8248 45.9699 28.4755C45.8256 28.1262 45.614 27.8088 45.3469 27.5414C45.0799 27.2739 44.7628 27.0618 44.4137 26.9171C44.0646 26.7723 43.6904 26.6978 43.3125 26.6978H22.1188Z" fill="black"/>
</g>
<defs>
<clipPath id="clip0_154_90">
<rect width="50" height="50" fill="white"/>
</clipPath>
</defs>
</svg>
