<svg width="18" height="18" viewBox="0 0 18 18" fill="none" xmlns="http://www.w3.org/2000/svg">
<path d="M13.1371 11.5616C13.139 12.3257 12.9769 13.0812 12.6617 13.7768C12.3466 14.4725 11.8859 15.0918 11.3109 15.5927C10.934 15.9251 11.1921 16.5473 11.694 16.4971C12.0296 16.4642 12.3615 16.4013 12.6859 16.309C13.5568 16.0625 14.3485 15.5922 14.9828 14.9447C15.6171 14.2971 16.0721 13.4946 16.3027 12.6165C16.5221 11.8193 16.5548 10.9819 16.3984 10.1698C16.2419 9.35772 15.9005 8.59293 15.4008 7.93517C14.9012 7.2774 14.2567 6.74446 13.5179 6.37798C12.779 6.0115 11.9657 5.82139 11.1415 5.82251C10.9233 5.82235 10.7052 5.83492 10.4884 5.86015C9.99216 5.92287 9.86653 6.58835 10.3072 6.82732C11.9953 7.73804 13.1384 9.51495 13.1384 11.5616H13.1371ZM6.44032 13.1378C5.67728 13.1402 4.9226 12.9783 4.22719 12.6631C3.53178 12.3479 2.91181 11.8868 2.40911 11.3107C2.07661 10.9343 1.45475 11.1915 1.50537 11.6933C1.53801 12.029 1.60076 12.3611 1.69287 12.6855C2.18911 14.4562 3.60785 15.8379 5.38471 16.3021C8.96404 17.2379 12.1784 14.5628 12.1784 11.1407C12.1784 10.9212 12.1659 10.7016 12.1409 10.4884C12.0784 9.99163 11.4128 9.86619 11.174 10.3065C10.7132 11.1634 10.0298 11.879 9.19639 12.3775C8.36294 12.876 7.41056 13.1387 6.44032 13.1378ZM4.86284 6.43844C4.86111 5.67423 5.02344 4.9186 5.33879 4.22299C5.65414 3.52738 6.1151 2.90811 6.69032 2.40731C7.06719 2.07426 6.80907 1.45269 6.3072 1.50286C5.96989 1.53603 5.63586 1.59686 5.30846 1.68476C4.43835 1.93248 3.64746 2.40318 3.01353 3.05058C2.37961 3.69798 1.92447 4.49979 1.69287 5.37719C1.4735 6.17447 1.44077 7.01185 1.59721 7.82393C1.75366 8.63601 2.09506 9.4008 2.59475 10.0586C3.09443 10.7163 3.73887 11.2493 4.47773 11.6158C5.2166 11.9822 6.02988 12.1723 6.85406 12.1712C7.07406 12.1712 7.29406 12.1587 7.50718 12.1336C8.00343 12.0709 8.12905 11.4048 7.68843 11.1664C6.83483 10.7093 6.12107 10.0279 5.62348 9.19515C5.12589 8.36237 4.86256 7.4095 4.86284 6.43844ZM11.5628 4.86224C12.3258 4.85984 13.0805 5.02169 13.7759 5.33687C14.4713 5.65206 15.0913 6.11325 15.594 6.68933C15.9252 7.06566 16.5477 6.8085 16.4971 6.30673C16.4645 5.97078 16.4017 5.63847 16.3096 5.31384C15.8127 3.5432 14.394 2.16207 12.6165 1.6973C9.04342 0.755219 5.82908 3.43031 5.82908 6.85241C5.82908 7.07193 5.84158 7.29146 5.86658 7.50534C5.92907 8.00147 6.59657 8.12691 6.83469 7.68723C7.29495 6.83193 7.97745 6.1177 8.80971 5.62041C9.64197 5.12312 10.5929 4.86134 11.5615 4.86287L11.5628 4.86224Z" fill="black"/>
</svg>
